# xmcd
#
# Track frame offsets:
# 150
# 16362
# 32957
# 52675
# 70929
# 88481
# 108852
# 127544
# 147840
# 166165
# 183014
# 198579
# 220929
# 237747
# 253396
#
# Disc length: 3597 seconds
#
#
# Revision: 0
# Processed by: cddbd v1.5.2PL0 Copyright (c) Steve Scherf et al.
# Submitted via: FreeRIP 2.95 
#
DISCID=d20e0b0f
DTITLE=Joca Martins - Domingueiro
DYEAR=2007
DGENRE=Alternative
TTITLE0=Baldas de potro cuiudo
TTITLE1=No Bailão da catacumba
TTITLE2=Domingueiro
TTITLE3=Milongão da gineteada
TTITLE4=Doma gaúcha
TTITLE5=Cruzando a querência
TTITLE6=Que colorada veiaca!
TTITLE7=Estória de laços
TTITLE8=Milongão campo afora
TTITLE9=Num casório de fronteira
TTITLE10=Estampa de bandear querência
TTITLE11=Onde andará
TTITLE12=Nos encontros do mouro
TTITLE13=Um certo tiro de laço
TTITLE14=Qualquer uma!
EXTD=
EXTT0=
EXTT1=
EXTT2=
EXTT3=
EXTT4=
EXTT5=
EXTT6=
EXTT7=
EXTT8=
EXTT9=
EXTT10=
EXTT11=
EXTT12=
EXTT13=
EXTT14=
PLAYORDER=
